<?xml version="1.0" standalone="no"?>
<!DOCTYPE svg PUBLIC "-//W3C//DTD SVG 20010904//EN"
 "http://www.w3.org/TR/2001/REC-SVG-20010904/DTD/svg10.dtd">
<svg version="1.0" xmlns="http://www.w3.org/2000/svg"
 width="320.000000pt" height="320.000000pt" viewBox="0 0 320.000000 320.000000"
 preserveAspectRatio="xMidYMid meet">
<metadata>
Created by potrace 1.11, written by Peter Selinger 2001-2013
</metadata>
<g transform="translate(0.000000,320.000000) scale(0.100000,-0.100000)"
fill="#000000" stroke="none">
<path d="M1410 3184 c-442 -69 -804 -341 -993 -746 -88 -187 -128 -365 -133
-583 -3 -163 4 -222 42 -354 38 -132 132 -318 213 -421 47 -60 233 -250 244
-250 5 0 82 72 169 160 143 143 159 162 147 177 -8 9 -49 53 -93 97 -170 175
-253 359 -261 581 -14 391 241 752 609 862 27 8 57 16 65 18 201 37 390 11
564 -76 208 -104 349 -273 431 -520 37 -110 45 -172 41 -294 -7 -219 -88 -388
-282 -584 -51 -52 -93 -96 -93 -97 0 -6 324 -324 330 -324 12 0 213 212 261
275 106 139 173 278 217 450 23 90 26 119 26 285 0 112 -5 207 -12 241 -7 30
-15 69 -18 85 -11 60 -67 212 -111 301 -53 107 -159 250 -252 341 -150 147
-368 282 -545 338 -165 52 -385 67 -566 38z"/>
<path d="M1471 2629 c-145 -28 -295 -106 -393 -206 -82 -84 -98 -106 -148
-208 -95 -194 -108 -408 -36 -599 45 -119 83 -173 207 -301 l88 -89 160 161
c89 88 161 167 161 174 0 8 -34 48 -76 89 -118 119 -153 216 -119 337 21 75
86 153 159 190 41 21 65 26 122 26 168 0 294 -123 300 -294 5 -122 12 -114
-541 -667 -332 -331 -492 -499 -487 -507 11 -20 313 -328 317 -324 2 2 229
228 504 502 517 515 562 566 615 696 47 117 62 248 40 366 -20 111 -23 119
-52 191 -89 218 -269 380 -494 445 -80 23 -251 32 -327 18z"/>
<path d="M1560 2090 c-88 -24 -143 -90 -147 -175 -2 -71 22 -116 110 -204 l75
-75 85 86 c53 53 89 100 97 122 12 36 9 93 -5 131 -33 84 -133 137 -215 115z"/>
<path d="M1833 910 c-87 -89 -159 -165 -161 -170 -2 -5 69 -83 157 -172 l161
-163 172 173 173 172 -160 160 c-88 88 -165 160 -172 160 -6 0 -83 -72 -170
-160z"/>
<path d="M1429 505 c-87 -88 -154 -164 -154 -174 0 -17 290 -331 305 -331 9 0
324 317 328 331 4 9 -308 329 -320 329 -2 0 -74 -70 -159 -155z"/>
</g>
</svg>
